<?xml version="1.0" encoding="UTF-8"?>
<svg xmlns="http://www.w3.org/2000/svg" xmlns:xlink="http://www.w3.org/1999/xlink" width="4132pt" height="800pt" viewBox="0 0 4132 800" version="1.1">
<g id="surface1">
<path style=" stroke:none;fill-rule:nonzero;fill:rgb(0%,30.980392%,61.568627%);fill-opacity:1;" d="M 323.660156 126.230469 C 275.207031 126.230469 260.671875 147.550781 260.671875 195.035156 L 260.671875 273.53125 L 390.523438 273.53125 L 377.925781 401.453125 L 260.671875 401.453125 L 260.671875 788.125 L 104.65625 788.125 L 104.65625 401.453125 L 0 401.453125 L 0 274.5 L 104.65625 274.5 L 104.65625 197.941406 C 104.65625 68.085938 156.984375 0.246094 301.371094 0.246094 C 331.414062 0.246094 362.421875 2.183594 392.460938 6.0625 L 392.460938 126.230469 "/>
<path style=" stroke:none;fill-rule:nonzero;fill:rgb(0%,30.980392%,61.568627%);fill-opacity:1;" d="M 401.183594 514.839844 C 401.183594 371.410156 469.015625 262.871094 612.433594 262.871094 C 689.957031 262.871094 737.441406 302.605469 760.699219 353 L 760.699219 274.5 L 909.929688 274.5 L 909.929688 789.09375 L 759.730469 789.09375 L 759.730469 711.566406 C 738.410156 760.988281 688.988281 799.753906 611.464844 799.753906 C 469.015625 799.753906 400.214844 692.183594 400.214844 547.789062 M 557.199219 549.726562 C 557.199219 626.285156 585.300781 677.644531 657.980469 677.644531 C 721.9375 677.644531 753.914062 631.128906 753.914062 557.476562 L 753.914062 505.148438 C 753.914062 431.496094 720.96875 384.980469 657.980469 384.980469 C 585.300781 384.980469 557.199219 435.371094 557.199219 512.898438 Z M 557.199219 549.726562 "/>
<path style=" stroke:none;fill-rule:nonzero;fill:rgb(0%,30.980392%,61.568627%);fill-opacity:1;" d="M 1233.59375 262.871094 C 1293.671875 262.871094 1351.816406 275.472656 1382.824219 297.761719 L 1347.9375 408.238281 C 1315.960938 392.730469 1280.105469 384.980469 1244.25 384.980469 C 1159.945312 384.980469 1123.121094 433.433594 1123.121094 516.777344 L 1123.121094 546.816406 C 1123.121094 630.160156 1159.945312 678.617188 1244.25 678.617188 C 1280.105469 678.617188 1315.960938 669.894531 1347.9375 654.386719 L 1382.824219 764.863281 C 1351.816406 786.183594 1294.640625 799.753906 1233.59375 799.753906 C 1050.441406 799.753906 968.074219 701.875 968.074219 543.910156 L 968.074219 519.683594 C 968.074219 361.71875 1050.441406 262.871094 1233.59375 262.871094 "/>
<path style=" stroke:none;fill-rule:nonzero;fill:rgb(0%,30.980392%,61.568627%);fill-opacity:1;" d="M 1403.175781 550.695312 L 1403.175781 505.148438 C 1403.175781 358.8125 1486.511719 262.871094 1656.09375 262.871094 C 1815.988281 262.871094 1886.726562 359.78125 1886.726562 503.207031 L 1886.726562 585.582031 L 1559.191406 585.582031 C 1562.097656 656.328125 1594.074219 687.335938 1680.320312 687.335938 C 1736.523438 687.335938 1792.730469 676.675781 1846.027344 656.328125 L 1874.128906 762.925781 C 1833.429688 784.246094 1749.121094 800.722656 1674.507812 800.722656 C 1476.820312 799.753906 1403.175781 701.875 1403.175781 550.695312 M 1559.191406 482.859375 L 1747.183594 482.859375 L 1747.183594 470.257812 C 1747.183594 414.050781 1724.898438 369.472656 1656.09375 369.472656 C 1586.324219 369.472656 1559.191406 414.050781 1559.191406 482.859375 "/>
<path style=" stroke:none;fill-rule:nonzero;fill:rgb(0%,30.980392%,61.568627%);fill-opacity:1;" d="M 2464.277344 547.789062 C 2464.277344 691.214844 2395.476562 799.753906 2252.054688 799.753906 C 2174.53125 799.753906 2120.265625 760.988281 2098.949219 711.566406 L 2098.949219 789.09375 L 1951.652344 789.09375 L 1951.652344 15.753906 L 2107.667969 2.183594 L 2107.667969 346.214844 C 2129.957031 300.667969 2180.347656 263.84375 2253.023438 263.84375 C 2395.476562 263.84375 2465.246094 371.410156 2465.246094 515.808594 M 2308.261719 511.929688 C 2308.261719 439.25 2280.160156 384.980469 2205.542969 384.980469 C 2141.585938 384.980469 2107.667969 430.527344 2107.667969 504.179688 L 2107.667969 558.449219 C 2107.667969 632.097656 2142.554688 677.644531 2205.542969 677.644531 C 2280.160156 677.644531 2308.261719 623.378906 2308.261719 550.695312 Z M 2308.261719 511.929688 "/>
<path style=" stroke:none;fill-rule:nonzero;fill:rgb(0%,30.980392%,61.568627%);fill-opacity:1;" d="M 2515.636719 543.910156 L 2515.636719 517.746094 C 2515.636719 369.472656 2599.941406 262.871094 2771.464844 262.871094 C 2942.984375 262.871094 3027.289062 369.472656 3027.289062 517.746094 L 3027.289062 543.910156 C 3027.289062 692.183594 2942.984375 798.785156 2771.464844 798.785156 C 2599.941406 798.785156 2515.636719 693.152344 2515.636719 543.910156 M 2872.242188 507.085938 C 2872.242188 439.25 2844.140625 384.980469 2771.464844 384.980469 C 2698.785156 384.980469 2670.683594 439.25 2670.683594 507.085938 L 2670.683594 555.539062 C 2670.683594 623.378906 2698.785156 677.644531 2771.464844 677.644531 C 2844.140625 677.644531 2872.242188 623.378906 2872.242188 555.539062 Z M 2872.242188 507.085938 "/>
<path style=" stroke:none;fill-rule:nonzero;fill:rgb(0%,30.980392%,61.568627%);fill-opacity:1;" d="M 3080.589844 543.910156 L 3080.589844 517.746094 C 3080.589844 369.472656 3164.894531 262.871094 3336.414062 262.871094 C 3507.9375 262.871094 3592.242188 369.472656 3592.242188 517.746094 L 3592.242188 543.910156 C 3592.242188 692.183594 3507.9375 798.785156 3336.414062 798.785156 C 3164.894531 798.785156 3080.589844 693.152344 3080.589844 543.910156 M 3437.195312 507.085938 C 3437.195312 439.25 3409.09375 384.980469 3336.414062 384.980469 C 3263.738281 384.980469 3235.636719 439.25 3235.636719 507.085938 L 3235.636719 555.539062 C 3235.636719 623.378906 3263.738281 677.644531 3336.414062 677.644531 C 3409.09375 677.644531 3437.195312 623.378906 3437.195312 555.539062 Z M 3437.195312 507.085938 "/>
<path style=" stroke:none;fill-rule:nonzero;fill:rgb(0%,30.980392%,61.568627%);fill-opacity:1;" d="M 3806.402344 519.683594 L 3960.480469 273.53125 L 4125.214844 273.53125 L 3964.355469 528.40625 L 4132 789.09375 L 3966.292969 789.09375 L 3806.402344 537.128906 L 3806.402344 789.09375 L 3651.355469 789.09375 L 3651.355469 15.753906 L 3806.402344 1.214844 "/>
</g>
</svg>
