<?xml version="1.0" encoding="UTF-8"?>
<svg xmlns="http://www.w3.org/2000/svg" xmlns:xlink="http://www.w3.org/1999/xlink" width="2820pt" height="800pt" viewBox="0 0 2820 800" version="1.1">
<g id="surface1">
<path style=" stroke:none;fill-rule:nonzero;fill:rgb(42.745098%,43.137255%,43.921569%);fill-opacity:1;" d="M 145.523438 2.78125 C 87.820312 26.960938 24.386719 95.1875 4.351562 180.890625 C -21.023438 289.441406 84.566406 335.347656 93.226562 320.320312 C 103.417969 302.628906 74.304688 296.648438 68.3125 240.324219 C 60.566406 167.574219 94.378906 86.285156 136.933594 50.621094 C 144.84375 43.992188 144.464844 53.214844 144.464844 70.277344 C 144.464844 100.789062 142.78125 374.648438 142.78125 431.808594 C 142.78125 509.148438 139.585938 533.570312 133.847656 557.695312 C 128.035156 582.152344 118.699219 598.675781 125.773438 605.046875 C 133.683594 612.164062 167.449219 595.230469 187 567.9375 C 210.441406 535.203125 218.648438 495.890625 220.125 453.195312 C 221.902344 401.734375 221.828125 320.070312 221.902344 273.488281 C 221.972656 230.769531 222.621094 105.671875 221.152344 30.46875 C 220.796875 12.023438 169.65625 -7.328125 145.523438 2.78125 Z M 2806.902344 409.074219 C 2798.535156 409.074219 2794.71875 417.707031 2791.558594 432.234375 C 2780.589844 482.753906 2769.074219 494.15625 2754.21875 494.15625 C 2737.617188 494.15625 2722.699219 469.140625 2718.871094 419.074219 C 2715.855469 379.703125 2716.339844 307.214844 2720.191406 235.117188 C 2720.980469 220.300781 2716.894531 205.644531 2677.171875 191.210938 C 2660.078125 184.996094 2635.234375 175.859375 2622.863281 205.730469 C 2587.914062 290.121094 2574.234375 357.128906 2571.015625 384.335938 C 2570.847656 385.746094 2569.128906 386.03125 2568.820312 382.742188 C 2566.769531 360.945312 2562.183594 321.328125 2561.613281 238.101562 C 2561.507812 221.863281 2558.066406 208.039062 2540.148438 196.726562 C 2528.523438 189.375 2493.214844 176.394531 2480.503906 191.84375 C 2469.496094 204.480469 2456.734375 238.488281 2443.480469 278.796875 C 2432.710938 311.554688 2425.207031 333.714844 2425.207031 333.714844 C 2425.207031 333.714844 2425.34375 245.316406 2425.476562 211.785156 C 2425.535156 199.136719 2416.859375 194.917969 2414.246094 194.15625 C 2402.476562 190.738281 2379.277344 185.027344 2369.4375 185.027344 C 2357.28125 185.027344 2354.308594 191.820312 2354.308594 201.71875 C 2354.308594 203.015625 2352.390625 318.105469 2352.390625 398.582031 C 2352.390625 402.074219 2352.394531 405.890625 2352.410156 409.945312 C 2345.691406 446.929688 2323.898438 497.140625 2300.203125 497.140625 C 2276.476562 497.140625 2265.285156 476.152344 2265.285156 380.210938 C 2265.285156 324.246094 2266.964844 299.90625 2267.785156 259.429688 C 2268.269531 236.113281 2269.195312 218.203125 2269.140625 214.144531 C 2268.964844 201.683594 2247.425781 195.40625 2237.402344 193.078125 C 2227.332031 190.742188 2218.582031 189.832031 2211.75 190.222656 C 2202.078125 190.765625 2195.242188 197.113281 2195.242188 205.84375 C 2195.242188 210.523438 2195.292969 219.417969 2195.292969 219.417969 C 2182.835938 199.839844 2162.796875 186.210938 2149.472656 182.261719 C 2113.570312 171.601562 2076.105469 181.050781 2047.847656 220.601562 C 2025.386719 252.027344 2011.851562 287.628906 2006.519531 338.773438 C 2002.625 376.15625 2003.898438 414.074219 2010.820312 446.136719 C 2002.453125 482.316406 1986.921875 497.140625 1969.914062 497.140625 C 1945.226562 497.140625 1927.328125 456.832031 1929.40625 387.113281 C 1930.777344 341.253906 1939.949219 309.074219 1949.976562 262.519531 C 1954.25 242.667969 1950.777344 232.28125 1942.066406 222.324219 C 1934.074219 213.1875 1917.054688 208.523438 1892.570312 214.265625 C 1875.136719 218.351562 1850.207031 222.757812 1827.40625 226.136719 C 1827.40625 226.136719 1828.78125 220.644531 1829.910156 210.960938 C 1835.84375 160.179688 1780.679688 164.300781 1763.078125 180.519531 C 1752.570312 190.203125 1745.421875 201.625 1742.707031 222.15625 C 1738.402344 254.738281 1764.964844 270.113281 1764.964844 270.113281 C 1756.25 310.035156 1734.882812 362.171875 1712.824219 399.871094 C 1701.007812 420.070312 1691.964844 435.035156 1680.300781 450.945312 C 1680.257812 445.03125 1680.226562 439.117188 1680.207031 433.203125 C 1679.9375 349.285156 1681.054688 283.238281 1681.542969 259.433594 C 1682.027344 236.117188 1682.964844 218.6875 1682.90625 214.628906 C 1682.777344 205.515625 1677.457031 202.070312 1666.394531 197.71875 C 1656.609375 193.863281 1645.039062 191.195312 1633.039062 190.265625 C 1617.894531 189.085938 1608.765625 197.117188 1609.007812 206.621094 C 1609.054688 208.414062 1609.054688 219.433594 1609.054688 219.433594 C 1596.597656 199.851562 1576.558594 186.226562 1563.234375 182.277344 C 1527.332031 171.613281 1489.867188 181.066406 1461.609375 220.613281 C 1439.15625 252.042969 1424.449219 296.144531 1420.28125 338.390625 C 1416.402344 377.765625 1417.117188 411.226562 1422.410156 439.414062 C 1416.699219 467.636719 1400.285156 497.152344 1381.726562 497.152344 C 1358 497.152344 1344.5 476.160156 1344.5 380.21875 C 1344.5 324.257812 1346.179688 299.917969 1347 259.4375 C 1347.484375 236.121094 1348.410156 218.214844 1348.355469 214.15625 C 1348.179688 201.695312 1326.640625 195.414062 1316.617188 193.089844 C 1306.128906 190.660156 1297.078125 189.769531 1290.125 190.285156 C 1280.945312 190.96875 1274.503906 199.179688 1274.503906 205.308594 L 1274.503906 219.433594 C 1262.046875 199.851562 1242.007812 186.226562 1228.683594 182.277344 C 1192.78125 171.613281 1155.523438 181.21875 1127.058594 220.613281 C 1108.492188 246.304688 1093.464844 274.785156 1085.730469 337.832031 C 1083.496094 356.050781 1082.507812 373.113281 1082.636719 389.058594 C 1075.234375 434.34375 1042.542969 486.535156 1015.792969 486.535156 C 1000.144531 486.535156 985.238281 456.171875 985.238281 391.460938 C 985.238281 305.257812 990.578125 182.53125 991.476562 170.703125 C 991.476562 170.703125 1025.265625 170.128906 1031.808594 170.050781 C 1048.671875 169.867188 1063.9375 170.265625 1086.378906 169.117188 C 1097.640625 168.542969 1108.488281 128.121094 1096.867188 123.117188 C 1091.605469 120.851562 1054.375 118.867188 1039.621094 118.554688 C 1027.210938 118.273438 992.660156 115.714844 992.660156 115.714844 C 992.660156 115.714844 995.761719 34.253906 996.484375 25.648438 C 997.097656 18.46875 987.820312 14.78125 982.5 12.535156 C 969.5625 7.066406 957.992188 4.441406 944.273438 1.613281 C 925.320312 -2.296875 916.71875 1.527344 915.042969 17.535156 C 912.511719 41.8125 911.203125 112.949219 911.203125 112.949219 C 897.289062 112.949219 849.785156 110.230469 835.871094 110.230469 C 822.941406 110.230469 808.996094 165.835938 826.867188 166.519531 C 847.425781 167.320312 883.257812 168.007812 907.011719 168.722656 C 907.011719 168.722656 905.957031 293.476562 905.957031 331.992188 C 905.957031 336.089844 905.96875 340.035156 906 343.863281 C 892.925781 412.027344 846.871094 448.847656 846.871094 448.847656 C 856.761719 403.753906 836.558594 369.890625 800.179688 341.226562 C 786.769531 330.660156 760.308594 310.664062 730.699219 288.75 C 730.699219 288.75 747.847656 271.84375 763.054688 237.820312 C 773.832031 213.726562 774.296875 186.152344 747.84375 180.074219 C 704.144531 170.023438 668.101562 202.125 657.355469 236.402344 C 649.027344 262.960938 653.46875 282.660156 669.78125 303.132812 C 670.972656 304.628906 672.265625 306.152344 673.597656 307.691406 C 663.730469 326.710938 650.179688 352.320312 638.699219 372.179688 C 606.835938 427.316406 582.773438 470.929688 564.578125 470.929688 C 550.039062 470.929688 550.238281 426.652344 550.238281 385.195312 C 550.238281 349.457031 552.878906 295.722656 554.984375 240.089844 C 555.683594 221.691406 546.480469 211.210938 531.0625 201.71875 C 521.695312 195.949219 501.703125 184.609375 490.128906 184.609375 C 472.800781 184.609375 422.800781 186.96875 375.554688 323.671875 C 369.601562 340.902344 357.902344 372.296875 357.902344 372.296875 L 358.910156 207.90625 C 358.910156 204.054688 356.855469 200.324219 352.15625 197.773438 C 344.195312 193.453125 322.929688 184.609375 304.023438 184.609375 C 295.019531 184.609375 290.519531 188.800781 290.519531 197.15625 L 288.867188 454.351562 C 288.867188 473.894531 289.375 496.691406 291.3125 506.660156 C 293.234375 516.648438 296.351562 524.765625 300.214844 529.597656 C 304.066406 534.417969 308.527344 538.097656 315.882812 539.617188 C 322.726562 541.027344 360.199219 545.839844 362.148438 531.515625 C 364.484375 514.34375 364.570312 495.773438 384.25 426.519531 C 414.882812 318.699219 454.824219 266.089844 473.605469 247.40625 C 476.886719 244.140625 480.636719 243.945312 480.453125 249.289062 C 479.65625 272.925781 476.839844 331.996094 474.9375 382.179688 C 469.847656 516.476562 494.273438 541.367188 529.175781 541.367188 C 555.875 541.367188 593.515625 514.824219 633.867188 447.648438 C 659.015625 405.78125 683.4375 364.730469 700.992188 335.144531 C 713.222656 346.472656 726.9375 358.65625 740.65625 371.675781 C 772.527344 401.933594 782.992188 430.683594 776.046875 457.957031 C 770.738281 478.808594 750.742188 500.300781 715.152344 479.414062 C 704.777344 473.324219 700.347656 468.613281 689.921875 461.742188 C 684.316406 458.054688 675.765625 456.945312 670.636719 460.816406 C 657.308594 470.863281 649.6875 483.652344 645.335938 499.476562 C 641.101562 514.875 656.519531 523.015625 672.5 530.136719 C 686.261719 536.265625 715.839844 541.820312 734.703125 542.449219 C 808.191406 544.910156 867.074219 506.953125 908.054688 409.046875 C 915.394531 493.601562 946.613281 541.449219 1000.867188 541.449219 C 1037.132812 541.449219 1073.496094 494.554688 1089.398438 448.421875 C 1093.964844 467.226562 1100.722656 483.578125 1109.449219 497.410156 C 1151.25 563.660156 1232.339844 549.398438 1273.074219 493.144531 C 1285.664062 475.761719 1287.585938 469.511719 1287.585938 469.511719 C 1293.527344 522.632812 1336.292969 541.195312 1360.777344 541.195312 C 1388.199219 541.195312 1416.515625 528.230469 1436.359375 483.539062 C 1438.632812 488.308594 1441.183594 492.941406 1443.996094 497.414062 C 1485.796875 563.664062 1566.890625 549.402344 1607.621094 493.152344 C 1609.539062 490.507812 1611.210938 488.113281 1612.660156 485.964844 L 1613.859375 520.863281 L 1576.359375 555.265625 C 1513.5 612.898438 1465.742188 656.609375 1462.230469 707.515625 C 1457.765625 772.421875 1510.359375 796.542969 1550.203125 799.707031 C 1592.445312 803.0625 1628.6875 779.699219 1650.933594 746.996094 C 1670.507812 718.222656 1683.3125 656.28125 1682.378906 595.101562 C 1682.003906 570.601562 1681.386719 539.453125 1680.898438 506.066406 C 1702.964844 480.433594 1727.828125 448.03125 1750.714844 410.117188 C 1775.667969 368.785156 1802.402344 313.289062 1816.085938 270.101562 C 1816.085938 270.101562 1839.316406 270.300781 1864.105469 268.675781 C 1872.035156 268.160156 1874.308594 269.773438 1872.847656 275.59375 C 1871.074219 282.613281 1841.527344 396.625 1868.496094 472.574219 C 1886.953125 524.566406 1928.566406 541.292969 1953.234375 541.292969 C 1982.117188 541.292969 2009.738281 519.476562 2024.542969 487.078125 C 2026.328125 490.691406 2028.195312 494.183594 2030.226562 497.414062 C 2072.03125 563.664062 2152.835938 549.324219 2193.855469 493.152344 C 2203.109375 480.476562 2208.367188 469.515625 2208.367188 469.515625 C 2217.167969 524.492188 2259.910156 541.476562 2284.390625 541.476562 C 2309.890625 541.476562 2334.09375 531.019531 2353.722656 484.542969 C 2354.546875 505.011719 2355.835938 521.738281 2357.875 527.015625 C 2359.121094 530.242188 2366.367188 534.289062 2371.636719 536.246094 C 2394.964844 544.894531 2418.757812 540.808594 2427.5625 539.027344 C 2433.660156 537.792969 2438.414062 532.898438 2439.0625 520.265625 C 2440.765625 487.085938 2439.722656 431.339844 2449.777344 389.902344 C 2466.65625 320.375 2482.402344 293.398438 2489.871094 280.050781 C 2494.050781 272.570312 2498.769531 271.335938 2498.9375 279.25 C 2499.285156 295.273438 2500.082031 342.316406 2506.625 405.523438 C 2511.429688 452.011719 2517.839844 479.488281 2522.769531 488.183594 C 2536.839844 513.050781 2554.21875 514.226562 2568.367188 514.226562 C 2577.363281 514.226562 2596.195312 511.742188 2594.507812 495.917969 C 2593.6875 488.203125 2595.125 440.53125 2611.769531 372.03125 C 2622.636719 327.296875 2640.753906 286.882812 2647.285156 272.101562 C 2649.695312 266.652344 2650.816406 270.949219 2650.777344 271.785156 C 2649.402344 302.589844 2646.3125 403.355469 2658.859375 458.464844 C 2675.867188 533.128906 2725.0625 541.476562 2742.207031 541.476562 C 2778.808594 541.476562 2808.742188 513.628906 2818.824219 440.347656 C 2821.277344 422.695312 2817.679688 409.074219 2806.902344 409.074219 Z M 1273.753906 363.773438 C 1271.65625 402.554688 1264.09375 434.972656 1251.953125 458.523438 C 1229.992188 501.144531 1186.539062 514.65625 1167.382812 453.074219 C 1153.570312 408.667969 1158.273438 348.113281 1164.019531 315.40625 C 1172.546875 266.863281 1193.898438 232.449219 1227.234375 235.710938 C 1261.476562 239.0625 1278.125 283.078125 1273.753906 363.773438 Z M 1608.300781 364.332031 C 1606.347656 400.953125 1596.855469 437.742188 1586.5 458.527344 C 1565.128906 501.441406 1520.445312 514.855469 1501.929688 453.078125 C 1489.269531 410.867188 1492.300781 356.234375 1498.566406 321.816406 C 1506.695312 277.148438 1526.398438 235.714844 1561.78125 235.714844 C 1596.1875 235.710938 1613.152344 273.464844 1608.300781 364.332031 Z M 1617.03125 614.179688 C 1616.566406 680.984375 1606.0625 739.558594 1583.519531 756.570312 C 1551.550781 780.695312 1508.582031 762.601562 1517.480469 713.851562 C 1525.351562 670.710938 1562.585938 626.65625 1617.128906 572.828125 C 1617.121094 572.828125 1617.234375 585.105469 1617.03125 614.179688 Z M 2194.542969 364.722656 C 2192.683594 404.925781 2183.785156 436.355469 2172.742188 458.523438 C 2151.367188 501.4375 2107.003906 514.761719 2088.171875 453.074219 C 2077.910156 419.449219 2077.429688 363.285156 2084.808594 316.355469 C 2092.320312 268.558594 2113.292969 232.449219 2148.023438 235.710938 C 2182.28125 238.921875 2198.316406 283.078125 2194.542969 364.722656 Z M 2194.542969 364.722656 "/>
</g>
</svg>
